G04 Generated by Ultiboard 14.3 *
%FSLAX33Y33*%
%MOMM*%

%ADD10C,0.001*%
%ADD11C,0.800*%


G04 ColorRGB 000000 for the following layer *
%LNDrill-Copper Top-Copper Bottom*%
%LPD*%
G54D11*
X80264Y3556D03*
X49860Y15748D03*
X49860Y9042D03*
X54356Y15748D03*
X54356Y9042D03*
X45695Y5779D03*
X59436Y6604D03*
X59436Y9144D03*
X65532Y6240D03*
X65542Y15240D03*
X17152Y13716D03*
X9652Y13716D03*
X24384Y13208D03*
X24384Y8128D03*
X24384Y15748D03*
X24384Y18288D03*
X24384Y10668D03*
X24384Y20828D03*
X54432Y9093D03*
X70129Y8890D03*
X79248Y11320D03*
X79258Y20320D03*
X4064Y21844D03*
X4064Y19304D03*
X4064Y16764D03*
X45796Y16332D03*
X31506Y26416D03*
X31496Y17416D03*
X70155Y18847D03*
X9144Y22362D03*
X18144Y22352D03*
X39624Y44196D03*
X54864Y49276D03*
X39624Y41656D03*
X54864Y46736D03*
X39624Y21336D03*
X39624Y23876D03*
X54864Y51816D03*
X54864Y54356D03*
X54864Y23876D03*
X54864Y26416D03*
X54864Y28956D03*
X54864Y31496D03*
X54864Y34036D03*
X54864Y36576D03*
X54864Y39116D03*
X54864Y41656D03*
X39624Y56896D03*
X39624Y49276D03*
X39624Y46736D03*
X39624Y31496D03*
X54864Y64516D03*
X54864Y67056D03*
X54864Y69596D03*
X39624Y69596D03*
X39624Y61976D03*
X39624Y59436D03*
X54864Y44196D03*
X54864Y56896D03*
X54864Y59436D03*
X54864Y61976D03*
X39624Y54356D03*
X39624Y36576D03*
X39624Y26416D03*
X39624Y28956D03*
X39624Y34036D03*
X39624Y39116D03*
X39624Y51816D03*
X39624Y64516D03*
X39624Y67056D03*
X54864Y21336D03*
X26416Y24020D03*
X26426Y33020D03*
X20828Y36576D03*
X20828Y31496D03*
X20828Y34036D03*
X20828Y28956D03*
X32512Y33782D03*
X32537Y41707D03*
X35052Y44196D03*
X35052Y41656D03*
X68580Y51012D03*
X68580Y55880D03*
X79502Y57404D03*
X65532Y60198D03*
X65278Y69596D03*
X79756Y69596D03*
X35416Y73152D03*
X26416Y73162D03*
X16256Y64008D03*
X18796Y64008D03*
X66040Y86360D03*
X3556Y86360D03*
X22098Y45720D03*
X25654Y42164D03*
X3556Y4572D03*
X9652Y3048D03*
X19812Y3048D03*
X56388Y79502D03*
X59690Y82550D03*
X20320Y47254D03*
X29320Y47244D03*
X20320Y49794D03*
X29320Y49784D03*
X18288Y55880D03*
X15748Y55880D03*
X61468Y57404D03*
X61468Y54864D03*
X74168Y8636D03*
X74168Y18796D03*
X74168Y46736D03*
X74168Y11176D03*
X74168Y21336D03*
X74168Y16256D03*
X74168Y13716D03*
X74168Y23876D03*
X74168Y26416D03*
X74168Y28956D03*
X74168Y31496D03*
X74168Y34036D03*
X74168Y36576D03*
X74168Y39116D03*
X74168Y41656D03*
X74168Y44196D03*
X5588Y57404D03*
X5588Y54864D03*
X5588Y52324D03*
X11176Y84328D03*
X16256Y84328D03*
X11176Y54864D03*
X11176Y57404D03*
X4318Y63246D03*
X6858Y63246D03*
X13208Y45202D03*
X4208Y45212D03*
X5334Y38354D03*
X2794Y38354D03*
X3048Y71120D03*
X8128Y71120D03*
X13208Y66548D03*
X13208Y76708D03*
X69596Y79756D03*
X69596Y61976D03*
X69596Y72136D03*
X77216Y72136D03*
X69596Y77216D03*
X69596Y74676D03*
X77216Y79756D03*
X77216Y74676D03*
X77216Y77216D03*
X69596Y64516D03*
X69596Y67056D03*
X69596Y69596D03*
X77216Y64516D03*
X77216Y67056D03*
X77216Y69596D03*
X77216Y61976D03*
X61468Y49276D03*
X61468Y51816D03*
X60436Y72136D03*
X60436Y69596D03*
X81788Y83820D03*
X79248Y83820D03*
X35052Y81788D03*
X32512Y81788D03*
X29972Y81788D03*
X37592Y81788D03*
X25400Y60452D03*
X25400Y57912D03*
X25400Y62992D03*
X25400Y65532D03*
X25400Y55372D03*
X25400Y68072D03*
X25400Y52832D03*
X47752Y79756D03*
X45212Y79756D03*

M02*
